<svg width="24" height="24" viewBox="0 0 24 24" fill="none" xmlns="http://www.w3.org/2000/svg">
<g clip-path="url(#clip0_173_210)">
<path d="M8.25 21.0001C8.25 21.5968 8.01295 22.1691 7.59099 22.5911C7.16903 23.013 6.59674 23.2501 6 23.2501C5.40326 23.2501 4.83097 23.013 4.40901 22.5911C3.98705 22.1691 3.75 21.5968 3.75 21.0001C3.75 20.4033 3.98705 19.831 4.40901 19.4091C4.83097 18.9871 5.40326 18.7501 6 18.7501C6.59674 18.7501 7.16903 18.9871 7.59099 19.4091C8.01295 19.831 8.25 20.4033 8.25 21.0001ZM8.25 21.0001H18.75M18.75 21.0001C18.75 21.5968 18.9871 22.1691 19.409 22.5911C19.831 23.013 20.4033 23.2501 21 23.2501C21.5967 23.2501 22.169 23.013 22.591 22.5911C23.0129 22.1691 23.25 21.5968 23.25 21.0001C23.25 20.4033 23.0129 19.831 22.591 19.4091C22.169 18.9871 21.5967 18.7501 21 18.7501C20.4033 18.7501 19.831 18.9871 19.409 19.4091C18.9871 19.831 18.75 20.4033 18.75 21.0001ZM7.947 19.8721L20.255 12.7471M19.053 19.8721L6.745 12.7471M8.25 1.50006L9.75 5.25006M21 12.7471H6C5.51895 12.747 5.05059 12.5927 4.66365 12.3069C4.2767 12.0211 3.99154 11.6188 3.85 11.1591L0.850002 3.65906C0.687056 3.09255 0.752942 2.48472 1.03349 1.96628C1.31404 1.44784 1.78684 1.06021 2.35022 0.886739C2.9136 0.713271 3.52255 0.767825 4.04612 1.03867C4.5697 1.30951 4.96607 1.77501 5.15 2.33506L7.661 8.24706H21C21.5967 8.24706 22.169 8.48412 22.591 8.90607C23.0129 9.32803 23.25 9.90033 23.25 10.4971C23.25 11.0938 23.0129 11.6661 22.591 12.0881C22.169 12.51 21.5967 12.7471 21 12.7471Z" stroke="#4EA6FF" stroke-width="1.5" stroke-linecap="round" stroke-linejoin="round"/>
</g>
<defs>
<clipPath id="clip0_173_210">
<rect width="24" height="24" fill="white"/>
</clipPath>
</defs>
</svg>
