<svg width="24" height="24" viewBox="0 0 24 24" fill="none" xmlns="http://www.w3.org/2000/svg">
<path d="M1.60571 10.5593C1.47393 10.4216 1.40804 10.258 1.40804 10.0685C1.40804 9.87893 1.47393 9.70636 1.60571 9.55076L5.09595 6.05266L3.14469 4.12326L2.2326 5.03703C2.07729 5.19357 1.90503 5.27184 1.71584 5.27184C1.52664 5.27184 1.36333 5.19357 1.22591 5.03703C1.0753 4.90501 1 4.74282 1 4.55044C1 4.35807 1.0753 4.18691 1.22591 4.03697L4.04972 1.23481C4.18715 1.07827 4.35046 1 4.53966 1C4.72885 1 4.90111 1.07827 5.05642 1.23481C5.18819 1.36683 5.25408 1.52903 5.25408 1.7214C5.25408 1.91378 5.18819 2.07598 5.05642 2.208L4.1175 3.15007L6.06875 5.07806L9.5604 1.57995C9.71666 1.42436 9.88938 1.34656 10.0786 1.34656C10.2678 1.34656 10.4311 1.42436 10.5685 1.57995C10.7238 1.71763 10.8015 1.88124 10.8015 2.07079C10.8015 2.26034 10.7238 2.43291 10.5685 2.5885L9.77784 3.37215L19.376 12.988C19.8269 13.4407 20.0523 13.9848 20.0523 14.6204C20.0523 15.256 19.8269 15.7902 19.376 16.223L18.3072 17.3037L24 23H21.9852L17.2991 18.3038L16.2289 19.3845C15.7959 19.8183 15.2626 20.0352 14.6292 20.0352C13.9957 20.0352 13.453 19.8183 13.0012 19.3845L3.40166 9.7686L2.61099 10.5607C2.45568 10.7107 2.28813 10.7856 2.10835 10.7856C1.92762 10.7856 1.75961 10.7102 1.6043 10.5593M4.37305 8.794L13.9712 18.4099C14.1529 18.573 14.3614 18.6546 14.5967 18.6546C14.832 18.6546 15.04 18.573 15.2207 18.4099L18.3679 15.223C18.5486 15.0589 18.639 14.8547 18.639 14.6105C18.639 14.3653 18.5486 14.1611 18.3679 13.998L16.3587 11.9498L14.1915 14.1211C14.0362 14.272 13.8681 14.3483 13.6874 14.3502C13.5067 14.3521 13.3509 14.287 13.2201 14.155C13.0638 14.0173 12.9857 13.8537 12.9857 13.6642C12.9857 13.4746 13.0638 13.3021 13.2201 13.1465L15.3859 10.9752L12.4266 8.03864L10.2607 10.2085C10.1223 10.3405 9.95856 10.4065 9.76937 10.4065C9.58017 10.4065 9.40792 10.3405 9.25261 10.2085C9.12083 10.0529 9.05494 9.88034 9.05494 9.6908C9.05494 9.50125 9.12083 9.33764 9.25261 9.19996L11.4199 7.02868L8.77821 4.38211L4.37305 8.794ZM4.37305 8.794L4.54954 8.61718L4.99853 8.16878L8.18238 4.98045L8.60313 4.55893L8.77821 4.38211L4.37305 8.794Z" fill="#4EA6FF"/>
</svg>
