<svg width="24" height="24" viewBox="0 0 24 24" fill="none" xmlns="http://www.w3.org/2000/svg">
<path d="M13.5084 6.79695L12.3024 4.46559C12.2745 4.41193 12.2314 4.36677 12.1779 4.3352C12.1245 4.30362 12.0629 4.28689 12 4.28689C11.9371 4.28689 11.8755 4.30362 11.8221 4.3352C11.7686 4.36677 11.7255 4.41193 11.6976 4.46559L10.4916 6.79695L7.7889 7.16894C7.72657 7.17763 7.66805 7.20275 7.61993 7.24148C7.57182 7.2802 7.53605 7.33097 7.51667 7.38805C7.49728 7.44513 7.49506 7.50624 7.51024 7.56446C7.52543 7.62268 7.55742 7.67569 7.6026 7.71749L9.5592 9.5303L9.0948 12.0931C9.08443 12.1521 9.09157 12.2127 9.1154 12.2681C9.13923 12.3234 9.17882 12.3713 9.2297 12.4064C9.28059 12.4415 9.34075 12.4624 9.40341 12.4667C9.46608 12.471 9.52876 12.4586 9.5844 12.4308L12 11.2197L14.4156 12.4308C14.4712 12.4586 14.5339 12.471 14.5966 12.4667C14.6593 12.4624 14.7194 12.4415 14.7703 12.4064C14.8212 12.3713 14.8608 12.3234 14.8846 12.2681C14.9084 12.2127 14.9156 12.1521 14.9052 12.0931L14.4435 9.5303L16.3974 7.71663C16.4423 7.6748 16.4741 7.62185 16.4891 7.56375C16.5041 7.50566 16.5018 7.44472 16.4825 7.3878C16.4631 7.33088 16.4275 7.28023 16.3795 7.24157C16.3316 7.2029 16.2732 7.17775 16.2111 7.16894L13.5084 6.79695ZM3 8.57118C3 3.83732 7.0293 0 12 0C16.9707 0 21 3.83732 21 8.57118C21.0007 9.90193 20.6757 11.2145 20.0508 12.4048C19.4259 13.595 18.5183 14.6302 17.4 15.4281V23.1422C17.4001 23.294 17.3579 23.4431 17.2777 23.5742C17.1975 23.7054 17.0822 23.8139 16.9435 23.8887C16.8048 23.9635 16.6478 24.0019 16.4884 23.9999C16.3291 23.998 16.1731 23.9558 16.0365 23.8776L12 21.5702L7.9635 23.8776C7.82689 23.9558 7.67093 23.998 7.51157 23.9999C7.35221 24.0019 7.19516 23.9635 7.05648 23.8887C6.91781 23.8139 6.80247 23.7054 6.72227 23.5742C6.64207 23.4431 6.59987 23.294 6.6 23.1422V15.4281C5.48172 14.6302 4.57411 13.595 3.94921 12.4048C3.3243 11.2145 2.9993 9.90193 3 8.57118ZM12 1.71424C10.0904 1.71424 8.25909 2.43666 6.90883 3.72259C5.55857 5.00852 4.8 6.75261 4.8 8.57118C4.8 10.3898 5.55857 12.1338 6.90883 13.4198C8.25909 14.7057 10.0904 15.4281 12 15.4281C13.9096 15.4281 15.7409 14.7057 17.0912 13.4198C18.4414 12.1338 19.2 10.3898 19.2 8.57118C19.2 6.75261 18.4414 5.00852 17.0912 3.72259C15.7409 2.43666 13.9096 1.71424 12 1.71424ZM15.6 21.6285V16.4292C14.4643 16.9004 13.2387 17.1431 12 17.1424C10.7613 17.1431 9.53568 16.9004 8.4 16.4292V21.6285L11.5374 19.8354C11.6773 19.7555 11.8373 19.7133 12.0005 19.7133C12.1636 19.7133 12.3236 19.7555 12.4635 19.8354L15.6 21.6285Z" fill="#4EA6FF"/>
</svg>
