<svg width="24" height="24" viewBox="0 0 24 24" fill="none" xmlns="http://www.w3.org/2000/svg">
<path d="M10.6875 16.26L17.75 9.48L15.9688 7.77L10.6875 12.84L8.0625 10.32L6.28125 12.03L10.6875 16.26ZM12 24C9.10417 23.3 6.71375 21.7048 4.82875 19.2144C2.94375 16.724 2.00083 13.9592 2 10.92V3.6L12 0L22 3.6V10.92C22 13.96 21.0575 16.7252 19.1725 19.2156C17.2875 21.706 14.8967 23.3008 12 24ZM12 21.48C14.1667 20.82 15.9583 19.5 17.375 17.52C18.7917 15.54 19.5 13.34 19.5 10.92V5.25L12 2.55L4.5 5.25V10.92C4.5 13.34 5.20833 15.54 6.625 17.52C8.04167 19.5 9.83333 20.82 12 21.48Z" fill="#4EA6FF"/>
</svg>
