<svg width="24" height="24" viewBox="0 0 24 24" fill="none" xmlns="http://www.w3.org/2000/svg">
<path d="M12 23C11.7884 23 11.576 22.9563 11.3627 22.8688C11.1493 22.7822 10.9671 22.6519 10.816 22.4779L2.39467 13.8129C1.61689 13.0157 1.02311 12.1178 0.613333 11.1192C0.204444 10.1205 0 9.09824 0 8.05225C0 6.09055 0.599111 4.42499 1.79733 3.05554C2.99556 1.68609 4.46667 1.00091 6.21067 1C7.12267 1 8 1.19453 8.84267 1.58359C9.68444 1.97264 10.4378 2.51933 11.1027 3.22364L12 4.19674L12.8467 3.27695C13.5231 2.5371 14.2867 1.97264 15.1373 1.58359C15.988 1.19453 16.8609 1 17.756 1C19.5 1 20.9769 1.68518 22.1867 3.05554C23.3964 4.4259 24.0009 6.07962 24 8.01671C24 9.08093 23.7942 10.1123 23.3827 11.111C22.9702 12.1096 22.3778 13.0075 21.6053 13.8047L13.152 22.4793C12.9822 22.6524 12.8009 22.7822 12.608 22.8688C12.4151 22.9554 12.2124 22.9986 12 22.9986M13.3333 7.25545C13.4533 7.25545 13.5618 7.28187 13.6587 7.33472C13.7564 7.38757 13.8351 7.46091 13.8947 7.55476L16.3413 11.3556H21.772C22.0813 10.828 22.3133 10.2818 22.468 9.7169C22.6227 9.15199 22.6916 8.58572 22.6747 8.01808C22.6471 6.44636 22.1613 5.11426 21.2173 4.0218C20.2742 2.92843 19.1204 2.38175 17.756 2.38175C17.0333 2.38175 16.3298 2.53209 15.6453 2.83276C14.9609 3.13162 14.368 3.56942 13.8667 4.14618L12.6587 5.47872C12.5653 5.59717 12.464 5.67917 12.3547 5.72473C12.2453 5.77029 12.1271 5.79261 12 5.7917C11.8729 5.79079 11.7507 5.76391 11.6333 5.71106C11.516 5.65822 11.4076 5.58077 11.308 5.47872L10.1 4.14618C9.59956 3.56942 9.00844 3.12889 8.32667 2.82456C7.644 2.51933 6.93867 2.36671 6.21067 2.36671C4.84622 2.36671 3.69244 2.91568 2.74933 4.0136C1.80622 5.11153 1.33422 6.44636 1.33333 8.01808C1.33333 8.60303 1.40933 9.17386 1.56133 9.73057C1.71333 10.2873 1.93556 10.829 2.228 11.3556H8C8.12 11.3556 8.22444 11.382 8.31333 11.4349C8.40222 11.4877 8.47645 11.5611 8.536 11.6549L10.472 14.6152L12.708 7.73927C12.7622 7.58893 12.8422 7.47048 12.948 7.38392C13.0538 7.29736 13.1822 7.25454 13.3333 7.25545ZM13.528 9.46406L11.292 16.3386C11.2378 16.4899 11.1524 16.6083 11.036 16.694C10.9196 16.7796 10.7853 16.8225 10.6333 16.8225C10.5142 16.8225 10.4102 16.796 10.3213 16.7432C10.2324 16.6903 10.1578 16.617 10.0973 16.5231L7.62533 12.7223H3.22533L11.7667 21.5034C11.8111 21.549 11.8502 21.5777 11.884 21.5896C11.9178 21.6014 11.9564 21.6069 12 21.6059C12.0436 21.605 12.0827 21.5996 12.1173 21.5896C12.152 21.5795 12.1907 21.5508 12.2333 21.5034L20.7667 12.7223H16C15.8809 12.7223 15.7724 12.6918 15.6747 12.6307C15.5769 12.5697 15.4956 12.4918 15.4307 12.397L13.528 9.46406Z" fill="#4EA6FF"/>
</svg>
