<svg width="24" height="24" viewBox="0 0 24 24" fill="none" xmlns="http://www.w3.org/2000/svg">
<path d="M2 20.8888V18.6333C2 17.2533 2.62222 15.8999 3.87778 15.3277C5.40889 14.6288 7.24667 14.2222 9.22222 14.2222C10.6056 14.2222 11.9211 14.4222 13.1111 14.7811" stroke="#4EA6FF" stroke-width="1.5" stroke-linecap="round" stroke-linejoin="round"/>
<path d="M9.2222 10.8891C11.37 10.8891 13.1111 9.14799 13.1111 7.00022C13.1111 4.85244 11.37 3.11133 9.2222 3.11133C7.07443 3.11133 5.33331 4.85244 5.33331 7.00022C5.33331 9.14799 7.07443 10.8891 9.2222 10.8891Z" stroke="#4EA6FF" stroke-width="1.5" stroke-linecap="round" stroke-linejoin="round"/>
<path d="M14.7778 3.27246C15.5799 3.5125 16.2832 4.00487 16.7832 4.67644C17.2833 5.34801 17.5533 6.16296 17.5533 7.00024C17.5533 7.83752 17.2833 8.65247 16.7832 9.32404C16.2832 9.99561 15.5799 10.488 14.7778 10.728M18.6667 14.2225V20.8891M15.3333 17.5558H22" stroke="#4EA6FF" stroke-width="1.5" stroke-linecap="round" stroke-linejoin="round"/>
</svg>
