<svg width="30" height="30" viewBox="0 0 30 30" fill="none" xmlns="http://www.w3.org/2000/svg">
<g clip-path="url(#clip0_175_778)">
<path d="M10.3125 26.2501C10.3125 26.996 10.0162 27.7114 9.48871 28.2388C8.96126 28.7663 8.24589 29.0626 7.49997 29.0626C6.75405 29.0626 6.03868 28.7663 5.51123 28.2388C4.98379 27.7114 4.68747 26.996 4.68747 26.2501C4.68747 25.5042 4.98379 24.7888 5.51123 24.2613C6.03868 23.7339 6.75405 23.4376 7.49997 23.4376C8.24589 23.4376 8.96126 23.7339 9.48871 24.2613C10.0162 24.7888 10.3125 25.5042 10.3125 26.2501ZM10.3125 26.2501H23.4375M23.4375 26.2501C23.4375 26.996 23.7338 27.7114 24.2612 28.2388C24.7887 28.7663 25.5041 29.0626 26.25 29.0626C26.9959 29.0626 27.7113 28.7663 28.2387 28.2388C28.7662 27.7114 29.0625 26.996 29.0625 26.2501C29.0625 25.5042 28.7662 24.7888 28.2387 24.2613C27.7113 23.7339 26.9959 23.4376 26.25 23.4376C25.5041 23.4376 24.7887 23.7339 24.2612 24.2613C23.7338 24.7888 23.4375 25.5042 23.4375 26.2501ZM9.93372 24.8401L25.3187 15.9338M23.8162 24.8401L8.43122 15.9338M10.3125 1.87508L12.1875 6.56258M26.25 15.9338H7.49997C6.89866 15.9337 6.31321 15.7409 5.82953 15.3836C5.34584 15.0264 4.98939 14.5235 4.81247 13.9488L1.06247 4.57383C0.85879 3.86569 0.941147 3.1059 1.29183 2.45785C1.64252 1.8098 2.23352 1.32526 2.93774 1.10842C3.64197 0.891589 4.40316 0.959781 5.05763 1.29834C5.71209 1.63689 6.20756 2.21877 6.43747 2.91883L9.57622 10.3088H26.25C26.9959 10.3088 27.7113 10.6051 28.2387 11.1326C28.7662 11.66 29.0625 12.3754 29.0625 13.1213C29.0625 13.8672 28.7662 14.5826 28.2387 15.1101C27.7113 15.6375 26.9959 15.9338 26.25 15.9338Z" stroke="white" stroke-opacity="0.7" stroke-width="1.5" stroke-linecap="round" stroke-linejoin="round"/>
</g>
<defs>
<clipPath id="clip0_175_778">
<rect width="30" height="30" fill="white"/>
</clipPath>
</defs>
</svg>
