<svg width="30" height="30" viewBox="0 0 30 30" fill="none" xmlns="http://www.w3.org/2000/svg">
<g clip-path="url(#clip0_175_784)">
<path d="M15 19.6875C17.5888 19.6875 19.6875 17.5888 19.6875 15C19.6875 12.4112 17.5888 10.3125 15 10.3125C12.4112 10.3125 10.3125 12.4112 10.3125 15C10.3125 17.5888 12.4112 19.6875 15 19.6875Z" stroke="white" stroke-opacity="0.7" stroke-width="1.875"/>
<path d="M28.9125 15.5437C29.1375 15.2062 29.1375 14.7938 28.9125 14.4563C27.6 12.5813 22.7625 6.5625 15 6.5625C7.23745 6.5625 2.39995 12.5813 1.08745 14.4563C0.862451 14.7938 0.862451 15.2062 1.08745 15.5437C2.39995 17.4187 7.23745 23.4375 15 23.4375C22.7625 23.4375 27.6 17.4187 28.9125 15.5437Z" stroke="white" stroke-opacity="0.7" stroke-width="1.875" stroke-linecap="round"/>
</g>
<defs>
<clipPath id="clip0_175_784">
<rect width="30" height="30" fill="white"/>
</clipPath>
</defs>
</svg>
