<svg width="24" height="24" viewBox="0 0 24 24" fill="none" xmlns="http://www.w3.org/2000/svg">
<path d="M18.4308 14.9998L14.9832 18.2446C14.8144 18.4094 14.7171 18.6338 14.7121 18.8696C14.7072 19.1054 14.795 19.3337 14.9566 19.5054C15.1183 19.6772 15.3409 19.7786 15.5766 19.7878C15.8122 19.7971 16.0421 19.7135 16.2168 19.555L21.3168 14.755C21.4061 14.6709 21.4773 14.5693 21.526 14.4567C21.5746 14.344 21.5997 14.2225 21.5997 14.0998C21.5997 13.9771 21.5746 13.8556 21.526 13.743C21.4773 13.6303 21.4061 13.5288 21.3168 13.4446L16.2168 8.6446C16.1312 8.56106 16.0299 8.49541 15.9186 8.45148C15.8074 8.40754 15.6886 8.38621 15.569 8.38873C15.4495 8.39124 15.3316 8.41755 15.2224 8.46613C15.1131 8.5147 15.0146 8.58456 14.9327 8.67162C14.8507 8.75869 14.7869 8.86121 14.745 8.97321C14.7031 9.0852 14.684 9.20442 14.6887 9.32391C14.6934 9.44339 14.7218 9.56074 14.7724 9.66909C14.823 9.77745 14.8946 9.87465 14.9832 9.955L18.4308 13.1998H6.29995C5.743 13.1998 5.20885 12.9786 4.81503 12.5847C4.4212 12.1909 4.19995 11.6568 4.19995 11.0998V5.6998C4.19995 5.46111 4.10513 5.23219 3.93635 5.06341C3.76756 4.89463 3.53864 4.7998 3.29995 4.7998C3.06126 4.7998 2.83234 4.89463 2.66355 5.06341C2.49477 5.23219 2.39995 5.46111 2.39995 5.6998V11.0998C2.39995 12.1341 2.81084 13.1261 3.54223 13.8575C4.27362 14.5889 5.26561 14.9998 6.29995 14.9998H18.4308Z" fill="#78BBFF"/>
</svg>
