<svg width="30" height="30" viewBox="0 0 30 30" fill="none" xmlns="http://www.w3.org/2000/svg">
<path d="M15 29C14.7356 29 14.47 28.9443 14.2033 28.833C13.9367 28.7228 13.7089 28.557 13.52 28.3355L2.99333 17.3074C2.02111 16.2927 1.27889 15.1499 0.766667 13.8789C0.255556 12.608 0 11.3068 0 9.97558C0 7.47889 0.748889 5.35907 2.24667 3.61614C3.74444 1.87321 5.58333 1.00116 7.76333 1C8.90333 1 10 1.24758 11.0533 1.74275C12.1056 2.23791 13.0472 2.93369 13.8783 3.83009L15 5.06858L16.0583 3.89793C16.9039 2.95631 17.8583 2.23791 18.9217 1.74275C19.985 1.24758 21.0761 1 22.195 1C24.375 1 26.2211 1.87205 27.7333 3.61614C29.2456 5.36023 30.0011 7.46497 30 9.93036C30 11.2848 29.7428 12.5975 29.2283 13.8685C28.7128 15.1394 27.9722 16.2823 27.0067 17.2969L16.44 28.3373C16.2278 28.5576 16.0011 28.7228 15.76 28.833C15.5189 28.9432 15.2656 28.9983 15 28.9983M16.6667 8.96148C16.8167 8.96148 16.9522 8.99511 17.0733 9.06237C17.1956 9.12963 17.2939 9.22298 17.3683 9.34242L20.4267 14.1798H27.215C27.6017 13.5084 27.8917 12.8132 28.085 12.0942C28.2783 11.3753 28.3644 10.6546 28.3433 9.9321C28.3089 7.93173 27.7017 6.23634 26.5217 4.84593C25.3428 3.45437 23.9006 2.75859 22.195 2.75859C21.2917 2.75859 20.4122 2.94993 19.5567 3.33261C18.7011 3.71297 17.96 4.27017 17.3333 5.00422L15.8233 6.70019C15.7067 6.85094 15.58 6.95531 15.4433 7.01329C15.3067 7.07128 15.1589 7.09969 15 7.09853C14.8411 7.09737 14.6883 7.06316 14.5417 6.9959C14.395 6.92864 14.2594 6.83007 14.135 6.70019L12.625 5.00422C11.9994 4.27017 11.2606 3.70949 10.4083 3.32217C9.555 2.93369 8.67333 2.73945 7.76333 2.73945C6.05778 2.73945 4.61556 3.43813 3.43667 4.8355C2.25778 6.23286 1.66778 7.93173 1.66667 9.9321C1.66667 10.6766 1.76167 11.4031 1.95167 12.1116C2.14167 12.8202 2.41944 13.5096 2.785 14.1798H10C10.15 14.1798 10.2806 14.2135 10.3917 14.2807C10.5028 14.348 10.5956 14.4413 10.67 14.5608L13.09 18.3284L15.885 9.57725C15.9528 9.38591 16.0528 9.23516 16.185 9.12499C16.3172 9.01483 16.4778 8.96032 16.6667 8.96148ZM16.91 11.7724L14.115 20.5219C14.0472 20.7144 13.9406 20.8652 13.795 20.9742C13.6494 21.0832 13.4817 21.1377 13.2917 21.1377C13.1428 21.1377 13.0128 21.104 12.9017 21.0368C12.7906 20.9695 12.6972 20.8762 12.6217 20.7567L9.53167 15.9193H4.03167L14.7083 27.0953C14.7639 27.1533 14.8128 27.1898 14.855 27.2049C14.8972 27.22 14.9456 27.2269 15 27.2258C15.0544 27.2246 15.1033 27.2176 15.1467 27.2049C15.19 27.1921 15.2383 27.1556 15.2917 27.0953L25.9583 15.9193H20C19.8511 15.9193 19.7156 15.8805 19.5933 15.8028C19.4711 15.7251 19.3694 15.6259 19.2883 15.5053L16.91 11.7724Z" fill="white" fill-opacity="0.7"/>
</svg>
