<svg width="30" height="30" viewBox="0 0 30 30" fill="none" xmlns="http://www.w3.org/2000/svg">
<g clip-path="url(#clip0_175_787)">
<path d="M15.0056 0C15.284 6.81561e-05 15.5554 0.091183 15.7781 0.259766L29.5095 10.6602C29.7588 10.8646 29.9238 11.1559 29.9714 11.4766C30.019 11.7972 29.9462 12.1243 29.7673 12.3936C29.658 12.5719 29.5063 12.7205 29.3269 12.8262C29.1475 12.9317 28.9446 12.9917 28.7371 13C28.4586 13.0011 28.1866 12.91 27.9646 12.7402L26.9861 11.999V26.7041C26.9815 27.0463 26.8387 27.3733 26.5896 27.6152C26.3406 27.8571 26.0042 27.9955 25.6521 28H4.31909C3.96697 27.9955 3.6306 27.8572 3.38159 27.6152C3.13263 27.3733 2.99069 27.0462 2.98608 26.7041V12.0283L2.04565 12.7402C1.77255 12.9469 1.42846 13.036 1.09058 12.9873C0.752958 12.9384 0.447622 12.756 0.24292 12.4805C0.0382562 12.2048 -0.0493432 11.8577 -0.0012207 11.5166C0.0470487 11.1754 0.227746 10.867 0.500732 10.6602L14.2332 0.259766C14.4558 0.0912206 14.7273 8.69536e-05 15.0056 0ZM5.62378 10.0312C5.64229 10.1175 5.6521 10.2064 5.6521 10.2959V25.4092H9.98608V15.2354C9.99079 14.9091 10.1357 14.597 10.3904 14.3662C10.6451 14.1356 10.9893 14.0043 11.3494 14H18.6218C18.9819 14.0043 19.3261 14.1356 19.5808 14.3662C19.8355 14.597 19.9814 14.9091 19.9861 15.2354V25.4092H24.3191V10.2959C24.3191 10.1976 24.331 10.1001 24.3533 10.0059L15.0056 2.92969L5.62378 10.0312ZM12.7126 25.4092H17.2585V16.4707H12.7126V25.4092Z" fill="white" fill-opacity="0.7"/>
</g>
<defs>
<clipPath id="clip0_175_787">
<rect width="30" height="30" fill="white"/>
</clipPath>
</defs>
</svg>
