<svg width="30" height="30" viewBox="0 0 30 30" fill="none" xmlns="http://www.w3.org/2000/svg">
<path fill-rule="evenodd" clip-rule="evenodd" d="M2.8125 4.6875V19.6875H27.1875V4.6875H2.8125ZM1.875 22.5H9.375V25.3125H7.03125C6.65829 25.3125 6.3006 25.4607 6.03688 25.7244C5.77316 25.9881 5.625 26.3458 5.625 26.7188C5.625 27.0917 5.77316 27.4494 6.03688 27.7131C6.3006 27.9768 6.65829 28.125 7.03125 28.125H22.9688C23.3417 28.125 23.6994 27.9768 23.9631 27.7131C24.2268 27.4494 24.375 27.0917 24.375 26.7188C24.375 26.3458 24.2268 25.9881 23.9631 25.7244C23.6994 25.4607 23.3417 25.3125 22.9688 25.3125H20.625V22.5H28.125C28.6223 22.5 29.0992 22.3025 29.4508 21.9508C29.8025 21.5992 30 21.1223 30 20.625V3.75C30 3.25272 29.8025 2.77581 29.4508 2.42417C29.0992 2.07254 28.6223 1.875 28.125 1.875H1.875C1.37772 1.875 0.900806 2.07254 0.549175 2.42417C0.197544 2.77581 0 3.25272 0 3.75L0 20.625C0 21.1223 0.197544 21.5992 0.549175 21.9508C0.900806 22.3025 1.37772 22.5 1.875 22.5ZM12.1875 25.3125V22.5H17.8125V25.3125H12.1875ZM21.5625 10.7812C21.5625 10.4083 21.4143 10.0506 21.1506 9.78688C20.8869 9.52316 20.5292 9.375 20.1562 9.375C19.7833 9.375 19.4256 9.52316 19.1619 9.78688C18.8982 10.0506 18.75 10.4083 18.75 10.7812V15.4688C18.75 15.8417 18.8982 16.1994 19.1619 16.4631C19.4256 16.7268 19.7833 16.875 20.1562 16.875C20.5292 16.875 20.8869 16.7268 21.1506 16.4631C21.4143 16.1994 21.5625 15.8417 21.5625 15.4688V10.7812ZM14.5312 7.5C14.9042 7.5 15.2619 7.64816 15.5256 7.91188C15.7893 8.1756 15.9375 8.53329 15.9375 8.90625V15.4688C15.9375 15.8417 15.7893 16.1994 15.5256 16.4631C15.2619 16.7268 14.9042 16.875 14.5312 16.875C14.1583 16.875 13.8006 16.7268 13.5369 16.4631C13.2732 16.1994 13.125 15.8417 13.125 15.4688V8.90625C13.125 8.53329 13.2732 8.1756 13.5369 7.91188C13.8006 7.64816 14.1583 7.5 14.5312 7.5ZM10.3125 12.6562C10.3125 12.2833 10.1643 11.9256 9.90062 11.6619C9.6369 11.3982 9.27921 11.25 8.90625 11.25C8.53329 11.25 8.1756 11.3982 7.91188 11.6619C7.64816 11.9256 7.5 12.2833 7.5 12.6562V15.4688C7.5 15.8417 7.64816 16.1994 7.91188 16.4631C8.1756 16.7268 8.53329 16.875 8.90625 16.875C9.27921 16.875 9.6369 16.7268 9.90062 16.4631C10.1643 16.1994 10.3125 15.8417 10.3125 15.4688V12.6562Z" fill="white" fill-opacity="0.7"/>
</svg>
