<svg width="30" height="30" viewBox="0 0 30 30" fill="none" xmlns="http://www.w3.org/2000/svg">
<g clip-path="url(#clip0_175_793)">
<path d="M18.0137 6.12256C19.6705 6.12256 21.0137 4.77941 21.0137 3.12256C21.0137 1.4657 19.6705 0.122559 18.0137 0.122559C16.3568 0.122559 15.0137 1.4657 15.0137 3.12256C15.0137 4.77941 16.3568 6.12256 18.0137 6.12256Z" fill="white" fill-opacity="0.7"/>
<path d="M19.297 15.6945C19.6762 16.2295 20.2428 16.635 20.8929 16.8385L25.0338 18.1351L26.0137 15.3791L21.8728 14.0826L19.2985 10.4559C18.9998 10.0354 18.5895 9.69517 18.1081 9.46896L15.8883 8.42676C15.2275 8.11813 14.471 8.04132 13.7552 8.21018L8.81243 9.36867C8.37852 9.46998 7.97312 9.65835 7.62413 9.92081C7.27514 10.1833 6.99083 10.5136 6.79076 10.8891L4.01367 16.1059L6.78302 17.4068L9.56011 12.19L13.0013 11.3818L10.2087 23.5132L4.52141 27.1864L6.27528 29.5818L11.9641 25.9072C12.6158 25.4857 13.0679 24.8534 13.2335 24.1266L14.0338 20.6555L17.9301 23.3999L19.362 30.1226L22.3976 29.5513L20.9657 22.8257C20.8153 22.1251 20.3954 21.501 19.7861 21.0727L16.4254 18.7063L17.427 13.0592L19.297 15.6945Z" fill="white" fill-opacity="0.7"/>
</g>
<defs>
<clipPath id="clip0_175_793">
<rect width="30" height="30" fill="white"/>
</clipPath>
</defs>
</svg>
