<svg width="785" height="393" viewBox="0 0 785 393" fill="none" xmlns="http://www.w3.org/2000/svg">
<path d="M196.5 0C305.024 2.77034e-06 393 87.9761 393 196.5C393 305.024 305.024 393 196.5 393C87.9761 393 2.77106e-06 305.024 0 196.5C0 87.9761 87.9761 0 196.5 0ZM84.541 323.033C114.35 349.428 153.553 365.453 196.5 365.453C239.861 365.453 279.405 349.116 309.318 322.264L197.304 206.84L84.541 323.033ZM189.154 27.7061C99.2519 31.552 27.5469 105.651 27.5469 196.5C27.5469 241.578 45.2024 282.531 73.9736 312.826L189.154 194.143V27.7061ZM203.846 192.486L319.817 311.986C348.12 281.776 365.453 241.163 365.453 196.5C365.453 105.651 293.748 31.552 203.846 27.7061V192.486Z" fill="#FAFAFA"/>
<path d="M587.664 0C696.188 2.77034e-06 784.164 87.9761 784.164 196.5C784.164 305.024 696.188 393 587.664 393C479.14 393 391.164 305.024 391.164 196.5C391.164 87.9761 479.14 0 587.664 0ZM580.318 27.7061C490.416 31.552 418.711 105.651 418.711 196.5C418.711 287.349 490.416 361.447 580.318 365.293V27.7061ZM595.01 365.293C684.912 361.447 756.617 287.349 756.617 196.5C756.617 105.651 684.912 31.552 595.01 27.7061V365.293Z" fill="#FAFAFA"/>
</svg>
