<svg width="96" height="96" viewBox="0 0 96 96" fill="none" xmlns="http://www.w3.org/2000/svg">
<path d="M0 48C0 21.4903 21.4903 0 48 0V0C74.5097 0 96 21.4903 96 48V48C96 74.5097 74.5097 96 48 96V96C21.4903 96 0 74.5097 0 48V48Z" fill="#0274DD"/>
<mask id="mask0_149_983" style="mask-type:alpha" maskUnits="userSpaceOnUse" x="23" y="23" width="50" height="50">
<rect x="23" y="23" width="50" height="50" fill="#D9D9D9"/>
</mask>
<g mask="url(#mask0_149_983)">
<path d="M48 41.7501C45.9861 41.7501 44.2674 41.0383 42.8438 39.6147C41.4201 38.1911 40.7083 36.4723 40.7083 34.4584C40.7083 32.4445 41.4201 30.7258 42.8438 29.3022C44.2674 27.8786 45.9861 27.1667 48 27.1667C50.0139 27.1667 51.7326 27.8786 53.1563 29.3022C54.5799 30.7258 55.2917 32.4445 55.2917 34.4584C55.2917 36.4723 54.5799 38.1911 53.1563 39.6147C51.7326 41.0383 50.0139 41.7501 48 41.7501ZM48 37.5834C48.8681 37.5834 49.6059 37.2796 50.2135 36.672C50.8212 36.0643 51.125 35.3265 51.125 34.4584C51.125 33.5904 50.8212 32.8525 50.2135 32.2449C49.6059 31.6372 48.8681 31.3334 48 31.3334C47.1319 31.3334 46.3941 31.6372 45.7865 32.2449C45.1788 32.8525 44.875 33.5904 44.875 34.4584C44.875 35.3265 45.1788 36.0643 45.7865 36.672C46.3941 37.2796 47.1319 37.5834 48 37.5834ZM48 68.8334L35.5 56.3334C34.8056 55.639 34.2847 54.8577 33.9375 53.9897C33.5903 53.1216 33.4167 52.1667 33.4167 51.1251C33.4167 49.0765 34.1198 47.349 35.526 45.9428C36.9323 44.5365 38.6597 43.8334 40.7083 43.8334C41.7153 43.8334 42.6441 44.0244 43.4948 44.4063C44.3455 44.7883 45.1181 45.3265 45.8125 46.0209L48 48.2084L50.1875 46.0209C50.8819 45.3265 51.6545 44.7883 52.5052 44.4063C53.3559 44.0244 54.2847 43.8334 55.2917 43.8334C57.3403 43.8334 59.0677 44.5365 60.474 45.9428C61.8802 47.349 62.5833 49.0765 62.5833 51.1251C62.5833 52.1667 62.4097 53.1216 62.0625 53.9897C61.7153 54.8577 61.1944 55.639 60.5 56.3334L48 68.8334ZM48 62.8959L57.4792 53.4168C57.7917 53.1043 58.026 52.7483 58.1823 52.349C58.3385 51.9497 58.4167 51.5417 58.4167 51.1251C58.4167 50.2917 58.1215 49.5626 57.5313 48.9376C56.941 48.3126 56.1944 48.0001 55.2917 48.0001C54.875 48.0001 54.5017 48.0608 54.1719 48.1824C53.842 48.3039 53.5208 48.5209 53.2083 48.8334L48 54.0418L42.7917 48.8334C42.5833 48.6251 42.3142 48.4341 41.9844 48.2605C41.6545 48.0869 41.2292 48.0001 40.7083 48.0001C39.8056 48.0001 39.059 48.3126 38.4688 48.9376C37.8785 49.5626 37.5833 50.2917 37.5833 51.1251C37.5833 51.5417 37.6701 51.9324 37.8438 52.297C38.0174 52.6615 38.2431 53.0001 38.5208 53.3126L48 62.8959Z" fill="white"/>
</g>
</svg>
