<svg width="120" height="120" viewBox="0 0 120 120" fill="none" xmlns="http://www.w3.org/2000/svg">
<path d="M0 60C0 26.8629 26.8629 0 60 0V0C93.1371 0 120 26.8629 120 60V60C120 93.1371 93.1371 120 60 120V120C26.8629 120 0 93.1371 0 60V60Z" fill="#0274DD"/>
<mask id="mask0_149_964" style="mask-type:alpha" maskUnits="userSpaceOnUse" x="30" y="30" width="60" height="60">
<rect x="30" y="30" width="60" height="60" fill="#D9D9D9"/>
</mask>
<g mask="url(#mask0_149_964)">
<path d="M67.5 80C61.9167 80 57.1875 78.0625 53.3125 74.1875C49.4375 70.3125 47.5 65.5833 47.5 60C47.5 54.4583 49.4375 49.7396 53.3125 45.8438C57.1875 41.9479 61.9167 40 67.5 40C73.0417 40 77.7604 41.9479 81.6563 45.8438C85.5521 49.7396 87.5 54.4583 87.5 60C87.5 65.5833 85.5521 70.3125 81.6563 74.1875C77.7604 78.0625 73.0417 80 67.5 80ZM67.5 75C71.6667 75 75.2083 73.5417 78.125 70.625C81.0417 67.7083 82.5 64.1667 82.5 60C82.5 55.8333 81.0417 52.2917 78.125 49.375C75.2083 46.4583 71.6667 45 67.5 45C63.3333 45 59.7917 46.4583 56.875 49.375C53.9583 52.2917 52.5 55.8333 52.5 60C52.5 64.1667 53.9583 67.7083 56.875 70.625C59.7917 73.5417 63.3333 75 67.5 75ZM73.1875 69.3125L76.75 65.75L70 59V50H65V61.0625L73.1875 69.3125ZM35 52.5V47.5H45V52.5H35ZM32.5 62.5V57.5H45V62.5H32.5ZM35 72.5V67.5H45V72.5H35Z" fill="white"/>
</g>
</svg>
