<svg width="32" height="32" viewBox="0 0 32 32" fill="none" xmlns="http://www.w3.org/2000/svg">
<path d="M16 0.5C24.5604 0.5 31.5 7.43959 31.5 16C31.5 24.5604 24.5604 31.5 16 31.5C7.43959 31.5 0.5 24.5604 0.5 16C0.5 7.43959 7.43959 0.5 16 0.5Z" stroke="#AE111E"/>
<path d="M21.3516 11.8499C21.4531 11.7484 21.6164 11.7484 21.7178 11.8499C21.8192 11.9513 21.8191 12.1136 21.7178 12.2151L13.7833 20.1506C13.6818 20.2521 13.5185 20.252 13.4171 20.1506L10.2823 17.0159C10.1808 16.9144 10.1808 16.7511 10.2823 16.6497C10.3837 16.5483 10.5461 16.5484 10.6475 16.6497L13.5958 19.5979L13.9415 19.2522L21.3516 11.8499Z" fill="#AE111E" stroke="#AE111E" stroke-width="0.978261"/>
</svg>
