<svg width="24" height="24" viewBox="0 0 24 24" fill="none" xmlns="http://www.w3.org/2000/svg">
<path d="M2 20.8888V18.6333C2 17.2533 2.62222 15.8999 3.87778 15.3277C5.40889 14.6288 7.24667 14.2222 9.22222 14.2222C10.6056 14.2222 11.9211 14.4222 13.1111 14.7811" stroke="#4EA6FF" stroke-width="1.5" stroke-linecap="round" stroke-linejoin="round"/>
<path d="M9.2222 10.8889C11.37 10.8889 13.1111 9.14775 13.1111 6.99997C13.1111 4.8522 11.37 3.11108 9.2222 3.11108C7.07443 3.11108 5.33331 4.8522 5.33331 6.99997C5.33331 9.14775 7.07443 10.8889 9.2222 10.8889Z" stroke="#4EA6FF" stroke-width="1.5" stroke-linecap="round" stroke-linejoin="round"/>
<path d="M14.7778 3.27222C15.5799 3.51225 16.2832 4.00463 16.7832 4.6762C17.2833 5.34777 17.5533 6.16272 17.5533 6.99999C17.5533 7.83727 17.2833 8.65222 16.7832 9.32379C16.2832 9.99536 15.5799 10.4877 14.7778 10.7278M18.6667 14.2222V20.8889M15.3333 17.5556H22" stroke="#4EA6FF" stroke-width="1.5" stroke-linecap="round" stroke-linejoin="round"/>
</svg>
