<svg width="45" height="45" viewBox="0 0 45 45" fill="none" xmlns="http://www.w3.org/2000/svg">
<g clip-path="url(#clip0_371_97)">
<path d="M38.475 6.46687C34.2 2.33437 28.575 0 22.5844 0C5.39062 0 -5.40562 18.6281 3.18 33.4462L0 45L11.8781 41.9025C17.0531 44.6981 21.2925 44.4506 22.5956 44.6156C42.5325 44.6156 52.4569 20.4956 38.4469 6.54L38.475 6.46687Z" fill="#ECEFF1"/>
<path d="M22.6256 40.7831L22.6144 40.7812H22.5844C16.6181 40.7812 12.8062 37.9556 12.4312 37.7925L5.39999 39.6206L7.28437 32.7862L6.83624 32.0831C4.97999 29.1281 3.99374 25.725 3.99374 22.2206C3.99374 5.73372 24.1406 -2.51066 35.7994 9.14247C47.43 20.6737 39.2644 40.7831 22.6256 40.7831Z" fill="#4CAF50"/>
<path d="M32.8254 26.8261L32.8085 26.9667C32.2441 26.6854 29.4954 25.3411 28.9835 25.1554C27.8341 24.7298 28.1585 25.0879 25.9516 27.6154C25.6235 27.9811 25.2973 28.0092 24.7404 27.7561C24.1779 27.4748 22.3723 26.8842 20.2348 24.9717C18.5698 23.4811 17.4523 21.6529 17.1223 21.0904C16.5729 20.1417 17.7223 20.0067 18.7685 18.0267C18.956 17.6329 18.8604 17.3236 18.7216 17.0442C18.581 16.7629 17.4616 14.0067 16.9929 12.9079C16.5429 11.8129 16.0798 11.9517 15.7329 11.9517C14.6529 11.8579 13.8635 11.8729 13.1679 12.5967C10.1416 15.9229 10.9048 19.3542 13.4941 23.0029C18.5829 29.6629 21.2941 30.8892 26.2516 32.5917C27.5904 33.0173 28.811 32.9573 29.7766 32.8186C30.8529 32.6479 33.0898 31.4667 33.5566 30.1448C34.0348 28.8229 34.0348 27.7261 33.8941 27.4729C33.7554 27.2198 33.3879 27.0792 32.8254 26.8261Z" fill="#FAFAFA"/>
</g>
<defs>
<clipPath id="clip0_371_97">
<rect width="45" height="45" fill="white"/>
</clipPath>
</defs>
</svg>
