<?xml version="1.0" encoding="UTF-8"?>
<svg id="Layer_1" xmlns="http://www.w3.org/2000/svg" width="280" height="56" viewBox="0 0 280 56">
  <defs>
    <style>
      .cls-1 {
        fill: #4e4f4f;
      }

      .cls-2 {
        fill: #24becb;
      }

      .cls-3 {
        fill: #f1606d;
      }
    </style>
  </defs>
  <g>
    <path class="cls-3" d="M17.16,2.7h-1.05c-6.04,0-10.95,4.9-10.95,10.95h0c0,4.47,2.72,8.5,6.88,10.16l16.06,6.43V13.65c0-6.04-4.9-10.95-10.95-10.95Z"/>
    <path class="cls-2" d="M5.17,23.76v14.97c0,6.93,5.62,12.55,12.55,12.55h7.03c1.85,0,3.36-1.5,3.36-3.36v-8.64c0-3.83-2.33-7.27-5.88-8.69l-17.05-6.83Z"/>
    <path class="cls-3" d="M40.1,8.69h.88c5.07,0,9.18,4.11,9.18,9.18h0c0,3.75-2.28,7.13-5.77,8.53l-13.47,5.4v-13.92c0-5.07,4.11-9.18,9.18-9.18Z"/>
    <path class="cls-2" d="M51.76,25.99v13.51c0,6.36-5.15,11.51-11.51,11.51h-5.98c-1.85,0-3.36-1.5-3.36-3.36v-7.57c0-3.46,2.11-6.58,5.32-7.87l15.52-6.22Z"/>
  </g>
  <g>
    <path class="cls-1" d="M70.94,40.63h-.88c0-1.88-1.61-3.06-3.82-3.06-2.05,0-3.82,1.03-3.82,2.81s1.77,2.1,3.66,2.43l.87.15c1.97.33,4.45.78,4.45,3.49,0,2.46-2.05,3.8-4.98,3.8-3.08,0-5.11-1.47-5.11-3.99h.88c0,2,1.71,3.18,4.24,3.18,2.36,0,4.1-1.04,4.1-2.99s-1.86-2.37-3.71-2.68l-.93-.16c-1.92-.33-4.34-.73-4.34-3.2,0-2.3,2.09-3.65,4.7-3.65,2.74,0,4.69,1.49,4.69,3.88Z"/>
    <path class="cls-1" d="M81.13,39.99h.87v9.99h-.87v-3.05c-.5,2-2.04,3.32-4.03,3.32-2.32,0-3.8-1.78-3.8-4.56v-5.71h.87v5.71c0,2.36,1.21,3.77,3.23,3.77,2.2,0,3.73-1.65,3.73-4.03v-5.44Z"/>
    <path class="cls-1" d="M85.11,43.33c.49-2.19,2-3.61,4.01-3.61,2.51,0,4.23,2.15,4.23,5.27s-1.73,5.27-4.23,5.27c-2.01,0-3.52-1.42-4.01-3.62v6.77h-.87v-13.42h.87v3.34ZM88.9,49.48c2.19,0,3.58-1.74,3.58-4.49s-1.39-4.49-3.58-4.49-3.79,1.85-3.79,4.49,1.56,4.49,3.79,4.49Z"/>
    <path class="cls-1" d="M104.07,46.88c-.61,2.16-2.17,3.38-4.3,3.38-2.81,0-4.68-2.12-4.68-5.28s1.86-5.26,4.63-5.26c2.53,0,4.39,1.88,4.39,4.94,0,.18,0,.38-.03.59h-8.13c.09,2.55,1.58,4.21,3.83,4.21,1.65,0,2.83-.9,3.42-2.58h.87ZM103.24,44.48c-.05-2.47-1.51-3.97-3.52-3.97-2.14,0-3.59,1.55-3.76,3.97h7.27Z"/>
    <path class="cls-1" d="M106.97,49.98h-.87v-9.99h.87v3.32c.45-2.15,1.79-3.32,3.99-3.32h.45v.85h-.45c-2.76,0-3.99,1.43-3.99,4.27v4.87Z"/>
    <path class="cls-1" d="M120.9,42.71h-.85c0-1.32-1.36-2.22-3.17-2.22s-3.14.82-3.14,2.07c0,1.31,1.56,1.55,3.04,1.79l.58.09c1.71.28,3.91.65,3.91,2.84,0,1.89-1.66,2.97-4.23,2.97s-4.33-1.13-4.33-3.07h.85c0,1.46,1.35,2.3,3.47,2.3s3.39-.78,3.39-2.18c0-1.55-1.68-1.84-3.24-2.1l-.58-.1c-1.66-.28-3.71-.62-3.71-2.52,0-1.73,1.71-2.86,3.99-2.86s4.02,1.19,4.02,2.99Z"/>
    <path class="cls-1" d="M124.07,43.33c.49-2.19,2-3.61,4.01-3.61,2.51,0,4.23,2.15,4.23,5.27s-1.73,5.27-4.23,5.27c-2.01,0-3.52-1.42-4.01-3.62v6.77h-.87v-13.42h.87v3.34ZM127.86,49.48c2.19,0,3.58-1.74,3.58-4.49s-1.39-4.49-3.58-4.49-3.79,1.85-3.79,4.49,1.56,4.49,3.79,4.49Z"/>
    <path class="cls-1" d="M143.03,46.88c-.61,2.16-2.17,3.38-4.3,3.38-2.81,0-4.68-2.12-4.68-5.28s1.86-5.26,4.63-5.26c2.53,0,4.39,1.88,4.39,4.94,0,.18,0,.38-.03.59h-8.13c.09,2.55,1.58,4.21,3.83,4.21,1.65,0,2.83-.9,3.42-2.58h.87ZM142.2,44.48c-.05-2.47-1.51-3.97-3.52-3.97-2.14,0-3.59,1.55-3.76,3.97h7.27Z"/>
    <path class="cls-1" d="M149.45,49.46c1.88,0,3.06-1.18,3.48-2.97h.86c-.44,2.24-1.98,3.77-4.34,3.77-2.78,0-4.65-2.11-4.65-5.27s1.86-5.27,4.65-5.27c2.36,0,3.88,1.51,4.34,3.73h-.87c-.42-1.78-1.6-2.94-3.47-2.94-2.28,0-3.78,1.74-3.78,4.47s1.5,4.48,3.78,4.48Z"/>
    <path class="cls-1" d="M156.84,38.29h-1.25v-1.42h1.25v1.42ZM156.65,49.98h-.87v-9.99h.87v9.99Z"/>
    <path class="cls-1" d="M163.14,39.71c2.83,0,4.52,1.62,4.52,4.34v5.93h-.87v-2.89c-.5,1.81-2.5,3.16-4.77,3.16-2.1,0-3.47-1.16-3.47-2.91s1.36-2.67,4.02-2.67h4.22v-.62c0-2.22-1.36-3.54-3.67-3.54-2.13,0-3.41,1.05-3.41,2.66h-.87c0-2.08,1.69-3.45,4.29-3.45ZM162.57,45.43c-2.16,0-3.16.6-3.16,1.89s1.06,2.15,2.8,2.15c2.44,0,4.58-1.6,4.58-3.42v-.62h-4.22Z"/>
    <path class="cls-1" d="M170.73,49.98h-.87v-13.41h.87v13.41Z"/>
    <path class="cls-1" d="M174.02,38.29h-1.25v-1.42h1.25v1.42ZM173.83,49.98h-.87v-9.99h.87v9.99Z"/>
    <path class="cls-1" d="M180.08,50.26c-1.75,0-2.68-1.13-2.68-3.28v-6.23h-1.6v-.76h1.6v-2.3h.87v2.3h3.55v.76h-3.55v6.23c0,1.68.61,2.49,1.94,2.49.44,0,.97-.09,1.62-.28v.77c-.64.2-1.23.29-1.74.29Z"/>
    <path class="cls-1" d="M192.66,39.99l-4.76,11.14c-.78,1.83-1.77,2.56-3.45,2.56-.27,0-.54-.02-.87-.06v-.78c.34.04.61.06.86.06,1.27,0,1.97-.5,2.56-1.88l.4-.93-4.23-10.11h.91l3.82,9.18,3.88-9.18h.9Z"/>
    <path class="cls-1" d="M208.87,49.98h-.89v-6.05h-8.52v6.05h-.89v-12.96h.89v6.08h8.52v-6.08h.89v12.96Z"/>
    <path class="cls-1" d="M215.55,39.72c2.78,0,4.64,2.11,4.64,5.27s-1.86,5.27-4.64,5.27-4.65-2.11-4.65-5.27,1.86-5.27,4.65-5.27ZM215.55,49.46c2.28,0,3.78-1.74,3.78-4.48s-1.5-4.47-3.78-4.47-3.78,1.74-3.78,4.47,1.5,4.48,3.78,4.48Z"/>
    <path class="cls-1" d="M229.88,42.71h-.85c0-1.32-1.36-2.22-3.17-2.22s-3.14.82-3.14,2.07c0,1.31,1.56,1.55,3.04,1.79l.58.09c1.71.28,3.91.65,3.91,2.84,0,1.89-1.66,2.97-4.23,2.97s-4.33-1.13-4.33-3.07h.85c0,1.46,1.35,2.3,3.47,2.3s3.38-.78,3.38-2.18c0-1.55-1.68-1.84-3.24-2.1l-.58-.1c-1.66-.28-3.71-.62-3.71-2.52,0-1.73,1.71-2.86,3.99-2.86s4.02,1.19,4.02,2.99Z"/>
    <path class="cls-1" d="M233.06,43.33c.49-2.19,2-3.61,4.01-3.61,2.51,0,4.23,2.15,4.23,5.27s-1.73,5.27-4.23,5.27c-2.01,0-3.52-1.42-4.01-3.62v6.77h-.87v-13.42h.87v3.34ZM236.85,49.48c2.19,0,3.58-1.74,3.58-4.49s-1.39-4.49-3.58-4.49-3.79,1.85-3.79,4.49,1.56,4.49,3.79,4.49Z"/>
    <path class="cls-1" d="M244.35,38.29h-1.25v-1.42h1.25v1.42ZM244.16,49.98h-.87v-9.99h.87v9.99Z"/>
    <path class="cls-1" d="M250.4,50.26c-1.75,0-2.68-1.13-2.68-3.28v-6.23h-1.6v-.76h1.6v-2.3h.87v2.3h3.55v.76h-3.55v6.23c0,1.68.61,2.49,1.94,2.49.44,0,.97-.09,1.62-.28v.77c-.64.2-1.23.29-1.74.29Z"/>
    <path class="cls-1" d="M258.13,39.71c2.83,0,4.52,1.62,4.52,4.34v5.93h-.87v-2.89c-.5,1.81-2.5,3.16-4.77,3.16-2.1,0-3.47-1.16-3.47-2.91s1.36-2.67,4.02-2.67h4.22v-.62c0-2.22-1.36-3.54-3.67-3.54-2.13,0-3.41,1.05-3.41,2.66h-.87c0-2.08,1.69-3.45,4.29-3.45ZM257.56,45.43c-2.16,0-3.16.6-3.16,1.89s1.06,2.15,2.8,2.15c2.44,0,4.58-1.6,4.58-3.42v-.62h-4.22Z"/>
    <path class="cls-1" d="M265.72,49.98h-.87v-13.41h.87v13.41Z"/>
    <path class="cls-1" d="M275.74,42.71h-.85c0-1.32-1.36-2.22-3.17-2.22s-3.14.82-3.14,2.07c0,1.31,1.56,1.55,3.04,1.79l.58.09c1.71.28,3.91.65,3.91,2.84,0,1.89-1.66,2.97-4.23,2.97s-4.33-1.13-4.33-3.07h.85c0,1.46,1.35,2.3,3.47,2.3s3.38-.78,3.38-2.18c0-1.55-1.68-1.84-3.24-2.1l-.58-.1c-1.66-.28-3.71-.62-3.71-2.52,0-1.73,1.71-2.86,3.99-2.86s4.02,1.19,4.02,2.99Z"/>
  </g>
  <g>
    <path class="cls-1" d="M77.89,28.31h-3.43v-7.78h-8.91v7.78h-3.43V9.68h3.43v7.82h8.91v-7.82h3.43v18.63Z"/>
    <path class="cls-1" d="M93.96,23.5c-.76,3.24-3.32,5.21-6.75,5.21-4.27,0-7.15-3.06-7.15-7.59s2.85-7.56,7.08-7.56,6.89,2.96,6.89,7.53c0,.34-.01.67-.05,1.04h-10.69c.27,2.39,1.75,3.82,4.01,3.82,1.71,0,2.87-.83,3.51-2.45h3.15ZM90.79,19.78c-.35-2.27-1.6-3.49-3.64-3.49s-3.46,1.29-3.82,3.49h7.45Z"/>
    <path class="cls-1" d="M102.75,13.55c4.32,0,6.9,2.32,6.9,6.24v8.52h-3.27v-3.77c-.67,2.58-2.79,4.16-5.71,4.16s-5.06-1.71-5.06-4.29,2.18-4.29,5.79-4.29h4.99v-.33c0-2.17-1.4-3.51-3.69-3.51s-3.4,1.09-3.4,2.8h-3.26c0-3.39,2.58-5.53,6.72-5.53ZM101.57,22.42c-1.77,0-2.71.61-2.71,1.78,0,1.22,1.05,1.91,2.93,1.91,2.67,0,4.59-1.37,4.59-3.28v-.41h-4.81Z"/>
    <path class="cls-1" d="M115.27,28.31h-3.27v-14.37h3.27v4.78c.59-2.96,2.26-4.78,5.18-4.78h.76v3.09h-1.07c-3.7,0-4.86,1.42-4.86,4.44v6.84Z"/>
    <path class="cls-1" d="M129.62,28.7c-3.01,0-4.61-1.82-4.61-5.34v-6.76h-1.88v-2.66h1.88v-3.31h3.27v3.31h4.44v2.66h-4.44v6.76c0,1.78.63,2.59,2.07,2.59.57,0,1.34-.13,2.38-.4v2.65c-1.17.33-2.2.5-3.1.5Z"/>
    <path class="cls-1" d="M156.6,22.73c0,3.49-3.16,5.97-7.57,5.97s-7.77-2.5-7.77-5.82c0-2.18,1.44-3.67,3.72-3.89-2.31-.2-3.72-1.65-3.72-3.84,0-3.33,3.28-5.86,7.58-5.86s7.39,2.5,7.72,6.07h-3.38c-.29-1.95-1.89-3.11-4.36-3.11s-4.17,1.21-4.17,3.08c0,1.59,1.22,2.29,4.05,2.29h9.8v2.71h-1.91v2.4ZM148.76,20.33c-2.83,0-4.09.74-4.09,2.35,0,1.88,1.7,3.06,4.38,3.06s4.19-1.16,4.19-3.11v-2.29h-4.48Z"/>
    <path class="cls-1" d="M184.12,9.68l-6.4,18.63h-4.94l-6.31-18.63h3.65l5.17,16.09,5.25-16.09h3.57Z"/>
    <path class="cls-1" d="M190.82,13.55c4.32,0,6.9,2.32,6.9,6.24v8.52h-3.27v-3.77c-.67,2.58-2.8,4.16-5.71,4.16s-5.06-1.71-5.06-4.29,2.18-4.29,5.79-4.29h4.99v-.33c0-2.17-1.4-3.51-3.69-3.51s-3.39,1.09-3.39,2.8h-3.26c0-3.39,2.58-5.53,6.72-5.53ZM189.64,22.42c-1.77,0-2.71.61-2.71,1.78,0,1.22,1.05,1.91,2.93,1.91,2.67,0,4.59-1.37,4.59-3.28v-.41h-4.81Z"/>
    <path class="cls-1" d="M212.51,18.43h-3.22c0-1.41-1.11-2.31-3.15-2.31-1.83,0-3.07.71-3.07,1.77,0,1.24,1.62,1.51,3.21,1.77l.96.16c2.35.38,5.75.94,5.75,4.4,0,2.86-2.34,4.49-6.61,4.49s-6.78-1.79-6.78-4.98h3.21c0,1.54,1.15,2.4,3.56,2.4,2.14,0,3.41-.67,3.41-1.85,0-1.39-1.66-1.69-3.51-2.01l-.96-.16c-2.15-.37-5.45-.93-5.45-4.14,0-2.7,2.35-4.4,6.24-4.4s6.41,1.87,6.41,4.87Z"/>
    <path class="cls-1" d="M221.75,25.81c2.08,0,3.17-1.32,3.5-3.04h3.26c-.44,3.41-2.92,5.94-6.77,5.94-4.25,0-7.15-3.02-7.15-7.58s2.9-7.57,7.15-7.57c3.86,0,6.33,2.53,6.77,5.94h-3.26c-.32-1.73-1.41-3.04-3.5-3.04-2.42,0-3.88,1.75-3.88,4.68s1.46,4.68,3.88,4.68Z"/>
    <path class="cls-1" d="M240.74,13.94h3.27v14.37h-3.27v-4.23c-.65,2.93-2.52,4.62-5.19,4.62-3.18,0-5-2.4-5-6.57v-8.19h3.27v7.86c0,2.67,1.07,4,3.24,4,2.33,0,3.68-1.52,3.68-4.21v-7.66Z"/>
    <path class="cls-1" d="M249.69,28.31h-3.27V9.03h3.27v19.29Z"/>
    <path class="cls-1" d="M258.85,13.55c4.32,0,6.9,2.32,6.9,6.24v8.52h-3.27v-3.77c-.67,2.58-2.8,4.16-5.71,4.16s-5.06-1.71-5.06-4.29,2.18-4.29,5.79-4.29h4.99v-.33c0-2.17-1.4-3.51-3.69-3.51s-3.39,1.09-3.39,2.8h-3.26c0-3.39,2.58-5.53,6.72-5.53ZM257.67,22.42c-1.77,0-2.71.61-2.71,1.78,0,1.22,1.05,1.91,2.93,1.91,2.67,0,4.59-1.37,4.59-3.28v-.41h-4.81Z"/>
    <path class="cls-1" d="M271.37,28.31h-3.27v-14.37h3.27v4.78c.59-2.96,2.26-4.78,5.18-4.78h.76v3.09h-1.08c-3.7,0-4.86,1.42-4.86,4.44v6.84Z"/>
  </g>
</svg>