<svg width="96" height="96" viewBox="0 0 96 96" fill="none" xmlns="http://www.w3.org/2000/svg">
<path d="M0 48C0 21.4903 21.4903 0 48 0V0C74.5097 0 96 21.4903 96 48V48C96 74.5097 74.5097 96 48 96V96C21.4903 96 0 74.5097 0 48V48Z" fill="#0274DD"/>
<mask id="mask0_149_991" style="mask-type:alpha" maskUnits="userSpaceOnUse" x="23" y="23" width="50" height="50">
<rect x="23" y="23" width="50" height="50" fill="#D9D9D9"/>
</mask>
<g mask="url(#mask0_149_991)">
<path d="M45.9167 41.7499V35.4999H39.6667V31.3333H45.9167V25.0833H50.0833V31.3333H56.3333V35.4999H50.0833V41.7499H45.9167ZM37.5833 68.8333C36.4375 68.8333 35.4566 68.4253 34.6406 67.6093C33.8246 66.7933 33.4167 65.8124 33.4167 64.6666C33.4167 63.5208 33.8246 62.5398 34.6406 61.7239C35.4566 60.9079 36.4375 60.4999 37.5833 60.4999C38.7292 60.4999 39.7101 60.9079 40.526 61.7239C41.342 62.5398 41.75 63.5208 41.75 64.6666C41.75 65.8124 41.342 66.7933 40.526 67.6093C39.7101 68.4253 38.7292 68.8333 37.5833 68.8333ZM58.4167 68.8333C57.2708 68.8333 56.2899 68.4253 55.474 67.6093C54.658 66.7933 54.25 65.8124 54.25 64.6666C54.25 63.5208 54.658 62.5398 55.474 61.7239C56.2899 60.9079 57.2708 60.4999 58.4167 60.4999C59.5625 60.4999 60.5434 60.9079 61.3594 61.7239C62.1753 62.5398 62.5833 63.5208 62.5833 64.6666C62.5833 65.8124 62.1753 66.7933 61.3594 67.6093C60.5434 68.4253 59.5625 68.8333 58.4167 68.8333ZM25.0833 31.3333V27.1666H31.9062L40.7604 45.9166H55.3437L63.4687 31.3333H68.2083L59.0417 47.8958C58.6597 48.5902 58.1476 49.1284 57.5052 49.5103C56.8628 49.8923 56.1597 50.0833 55.3958 50.0833H39.875L37.5833 54.2499H62.5833V58.4166H37.5833C36.0208 58.4166 34.8316 57.7395 34.0156 56.3853C33.1996 55.0312 33.1736 53.6596 33.9375 52.2708L36.75 47.1666L29.25 31.3333H25.0833Z" fill="white"/>
</g>
</svg>
