<svg width="120" height="120" viewBox="0 0 120 120" fill="none" xmlns="http://www.w3.org/2000/svg">
<path d="M0 60C0 26.8629 26.8629 0 60 0V0C93.1371 0 120 26.8629 120 60V60C120 93.1371 93.1371 120 60 120V120C26.8629 120 0 93.1371 0 60V60Z" fill="#0274DD"/>
<mask id="mask0_149_972" style="mask-type:alpha" maskUnits="userSpaceOnUse" x="30" y="30" width="60" height="60">
<rect x="30" y="30" width="60" height="60" fill="#D9D9D9"/>
</mask>
<g mask="url(#mask0_149_972)">
<path d="M35.4375 55C35.2708 54.375 35.1563 53.75 35.0938 53.125C35.0313 52.5 35 51.8542 35 51.1875C35 47.2708 36.3125 44.0104 38.9375 41.4062C41.5625 38.8021 44.8333 37.5 48.75 37.5C50.875 37.5 52.9271 37.9583 54.9063 38.875C56.8854 39.7917 58.5833 41.0833 60 42.75C61.4167 41.0833 63.1042 39.7917 65.0625 38.875C67.0208 37.9583 69.0833 37.5 71.25 37.5C75.1667 37.5 78.4375 38.8021 81.0625 41.4062C83.6875 44.0104 85 47.2708 85 51.1875V51.3125C84.2083 50.6042 83.3542 49.9896 82.4375 49.4687C81.5208 48.9479 80.5417 48.5208 79.5 48.1875C78.9167 46.4792 77.875 45.1042 76.375 44.0625C74.875 43.0208 73.1667 42.5 71.25 42.5C69.4583 42.5 67.7292 43.0313 66.0625 44.0938C64.3958 45.1563 62.8542 46.7083 61.4375 48.75H58.5625C57.1875 46.75 55.6458 45.2083 53.9375 44.125C52.2292 43.0417 50.5 42.5 48.75 42.5C46.2917 42.5 44.2188 43.3438 42.5313 45.0313C40.8438 46.7188 40 48.7708 40 51.1875C40 51.8542 40.0625 52.4896 40.1875 53.0938C40.3125 53.6979 40.5 54.3333 40.75 55H35.4375ZM60 82.5L52.0625 75.375C50.9375 74.3333 49.8958 73.375 48.9375 72.5C47.9792 71.625 47.0833 70.7917 46.25 70H53.5625C54.5208 70.8333 55.5312 71.7292 56.5937 72.6875C57.6562 73.6458 58.7917 74.6667 60 75.75C60.7083 75.1667 61.3646 74.6042 61.9688 74.0625C62.5729 73.5208 63.1667 72.9792 63.75 72.4375C64.3333 73.0625 64.9479 73.6354 65.5938 74.1563C66.2396 74.6771 66.9375 75.1458 67.6875 75.5625L60 82.5ZM75 72.5C74.2917 72.5 73.6979 72.2604 73.2188 71.7813C72.7396 71.3021 72.5 70.7083 72.5 70C72.5 69.2917 72.7396 68.6979 73.2188 68.2188C73.6979 67.7396 74.2917 67.5 75 67.5C75.7083 67.5 76.3021 67.7396 76.7812 68.2188C77.2604 68.6979 77.5 69.2917 77.5 70C77.5 70.7083 77.2604 71.3021 76.7812 71.7813C76.3021 72.2604 75.7083 72.5 75 72.5ZM72.5 65V52.5H77.5V65H72.5ZM32.5 65V60H43.625L48 53.5625C48.25 53.1875 48.5521 52.9167 48.9062 52.75C49.2604 52.5833 49.6458 52.5 50.0625 52.5C50.4792 52.5 50.8646 52.5938 51.2188 52.7813C51.5729 52.9688 51.875 53.25 52.125 53.625L56.375 60H60.25C60.1667 60.4167 60.1042 60.8229 60.0625 61.2188C60.0208 61.6146 60 62.0417 60 62.5C60 62.9583 60.0208 63.3854 60.0625 63.7812C60.1042 64.1771 60.1667 64.5833 60.25 65H55C54.5833 65 54.1875 64.8958 53.8125 64.6875C53.4375 64.4792 53.1458 64.2083 52.9375 63.875L50 59.5L47.0625 63.875C46.8542 64.2083 46.5625 64.4792 46.1875 64.6875C45.8125 64.8958 45.4167 65 45 65H32.5Z" fill="white"/>
</g>
</svg>
