<svg width="120" height="120" viewBox="0 0 120 120" fill="none" xmlns="http://www.w3.org/2000/svg">
<path d="M0 60C0 26.8629 26.8629 0 60 0V0C93.1371 0 120 26.8629 120 60V60C120 93.1371 93.1371 120 60 120V120C26.8629 120 0 93.1371 0 60V60Z" fill="#0274DD"/>
<mask id="mask0_149_968" style="mask-type:alpha" maskUnits="userSpaceOnUse" x="30" y="30" width="60" height="60">
<rect x="30" y="30" width="60" height="60" fill="#D9D9D9"/>
</mask>
<g mask="url(#mask0_149_968)">
<path d="M60 55C57.25 55 54.8958 54.0208 52.9375 52.0625C50.9792 50.1042 50 47.75 50 45C50 42.25 50.9792 39.8958 52.9375 37.9375C54.8958 35.9792 57.25 35 60 35C62.75 35 65.1042 35.9792 67.0625 37.9375C69.0208 39.8958 70 42.25 70 45C70 47.75 69.0208 50.1042 67.0625 52.0625C65.1042 54.0208 62.75 55 60 55ZM60 50C61.375 50 62.5521 49.5104 63.5313 48.5312C64.5104 47.5521 65 46.375 65 45C65 43.625 64.5104 42.4479 63.5313 41.4688C62.5521 40.4896 61.375 40 60 40C58.625 40 57.4479 40.4896 56.4688 41.4688C55.4896 42.4479 55 43.625 55 45C55 46.375 55.4896 47.5521 56.4688 48.5312C57.4479 49.5104 58.625 50 60 50ZM40 85V68.0625C40 66.6458 40.3542 65.3438 41.0625 64.1563C41.7708 62.9688 42.75 62.0417 44 61.375C46.125 60.2917 48.5313 59.375 51.2188 58.625C53.9063 57.875 56.8333 57.5 60 57.5C63.1667 57.5 66.0937 57.875 68.7812 58.625C71.4687 59.375 73.875 60.2917 76 61.375C77.25 62.0417 78.2292 62.9688 78.9375 64.1563C79.6458 65.3438 80 66.6458 80 68.0625V80C80 81.375 79.5104 82.5521 78.5313 83.5313C77.5521 84.5104 76.375 85 75 85H54.375C52.4583 85 50.8333 84.3333 49.5 83C48.1667 81.6667 47.5 80.0417 47.5 78.125C47.5 76.2083 48.1667 74.5833 49.5 73.25C50.8333 71.9167 52.4583 71.25 54.375 71.25H61.4375L65.3125 63C64.4792 62.8333 63.625 62.7083 62.75 62.625C61.875 62.5417 60.9583 62.5 60 62.5C57 62.5 54.3333 62.8646 52 63.5938C49.6667 64.3229 47.7708 65.0833 46.3125 65.875C45.8958 66.0833 45.5729 66.3854 45.3438 66.7813C45.1146 67.1771 45 67.6042 45 68.0625V85H40ZM54.375 80H57.375L59.125 76.25H54.375C53.875 76.25 53.4375 76.4375 53.0625 76.8125C52.6875 77.1875 52.5 77.625 52.5 78.125C52.5 78.625 52.6875 79.0625 53.0625 79.4375C53.4375 79.8125 53.875 80 54.375 80ZM62.875 80H75V68.0625C75 67.6042 74.8854 67.1771 74.6563 66.7813C74.4271 66.3854 74.125 66.0833 73.75 65.875C73.25 65.625 72.7083 65.3646 72.125 65.0938C71.5417 64.8229 70.9167 64.5625 70.25 64.3125L62.875 80Z" fill="white"/>
</g>
</svg>
