<svg width="120" height="120" viewBox="0 0 120 120" fill="none" xmlns="http://www.w3.org/2000/svg">
<path d="M0 60C0 26.8629 26.8629 0 60 0V0C93.1371 0 120 26.8629 120 60V60C120 93.1371 93.1371 120 60 120V120C26.8629 120 0 93.1371 0 60V60Z" fill="#0274DD"/>
<mask id="mask0_149_956" style="mask-type:alpha" maskUnits="userSpaceOnUse" x="30" y="30" width="60" height="60">
<rect x="30" y="30" width="60" height="60" fill="#D9D9D9"/>
</mask>
<g mask="url(#mask0_149_956)">
<path d="M46.25 85C43.8333 85 41.7708 84.1458 40.0625 82.4375C38.3542 80.7292 37.5 78.6667 37.5 76.25V56.4375C36.375 55.3542 35.2604 54.2604 34.1563 53.1563C33.0521 52.0521 32.5 50.7083 32.5 49.125C32.5 48 32.9062 47.0313 33.7188 46.2188C34.5313 45.4063 35.5 45 36.625 45C37.2917 45 37.9063 45.1458 38.4688 45.4375C39.0313 45.7292 39.5417 46.1042 40 46.5625C40.4583 46.1042 40.9687 45.7292 41.5312 45.4375C42.0937 45.1458 42.7083 45 43.375 45C44.5 45 45.4688 45.4063 46.2813 46.2188C47.0938 47.0313 47.5 48 47.5 49.125C47.5 50.7083 46.9479 52.0521 45.8438 53.1563C44.7396 54.2604 43.625 55.3542 42.5 56.4375V76.25C42.5 77.2917 42.8646 78.1771 43.5938 78.9062C44.3229 79.6354 45.2083 80 46.25 80C47.2917 80 48.1771 79.6354 48.9062 78.9062C49.6354 78.1771 50 77.2917 50 76.25V47.5C50 44.0417 51.2188 41.0938 53.6563 38.6562C56.0938 36.2187 59.0417 35 62.5 35C65.9583 35 68.9063 36.2187 71.3438 38.6562C73.7813 41.0938 75 44.0417 75 47.5V47.75C77.875 48.3333 80.2604 49.7604 82.1563 52.0312C84.0521 54.3021 85 56.9583 85 60V72.5C85 75.9583 83.7813 78.9063 81.3438 81.3438C78.9063 83.7813 75.9583 85 72.5 85C69.0417 85 66.0938 83.7813 63.6563 81.3438C61.2188 78.9063 60 75.9583 60 72.5V60C60 56.9583 60.9479 54.3021 62.8437 52.0312C64.7396 49.7604 67.125 48.3333 70 47.75V47.5C70 45.4167 69.2708 43.6458 67.8125 42.1875C66.3542 40.7292 64.5833 40 62.5 40C60.4167 40 58.6458 40.7292 57.1875 42.1875C55.7292 43.6458 55 45.4167 55 47.5V76.25C55 78.6667 54.1458 80.7292 52.4375 82.4375C50.7292 84.1458 48.6667 85 46.25 85ZM72.5 80C74.5833 80 76.3542 79.2708 77.8125 77.8125C79.2708 76.3542 80 74.5833 80 72.5V60C80 57.9167 79.2708 56.1458 77.8125 54.6875C76.3542 53.2292 74.5833 52.5 72.5 52.5C70.4167 52.5 68.6458 53.2292 67.1875 54.6875C65.7292 56.1458 65 57.9167 65 60V72.5C65 74.5833 65.7292 76.3542 67.1875 77.8125C68.6458 79.2708 70.4167 80 72.5 80ZM72.5 67.5C71.125 67.5 69.9479 67.9896 68.9688 68.9688C67.9896 69.9479 67.5 71.125 67.5 72.5C67.5 73.875 67.9896 75.0521 68.9688 76.0313C69.9479 77.0104 71.125 77.5 72.5 77.5C73.875 77.5 75.0521 77.0104 76.0313 76.0313C77.0104 75.0521 77.5 73.875 77.5 72.5C77.5 71.125 77.0104 69.9479 76.0313 68.9688C75.0521 67.9896 73.875 67.5 72.5 67.5Z" fill="white"/>
</g>
</svg>
