<svg width="96" height="96" viewBox="0 0 96 96" fill="none" xmlns="http://www.w3.org/2000/svg">
<path d="M0 48C0 21.4903 21.4903 0 48 0V0C74.5097 0 96 21.4903 96 48V48C96 74.5097 74.5097 96 48 96V96C21.4903 96 0 74.5097 0 48V48Z" fill="#0274DD"/>
<mask id="mask0_149_987" style="mask-type:alpha" maskUnits="userSpaceOnUse" x="23" y="23" width="50" height="50">
<rect x="23" y="23" width="50" height="50" fill="#D9D9D9"/>
</mask>
<g mask="url(#mask0_149_987)">
<path d="M43.3125 60.5V53.2083H40.1875V45.7083C40.1875 44.9097 40.7344 44.224 41.8281 43.651C42.9219 43.0781 44.2847 42.7917 45.9167 42.7917C47.5486 42.7917 48.9114 43.0781 50.0052 43.651C51.0989 44.224 51.6458 44.9097 51.6458 45.7083V53.2083H48.5208V60.5H43.3125ZM45.9167 41.75C45.0139 41.75 44.2674 41.4549 43.6771 40.8646C43.0868 40.2743 42.7917 39.5278 42.7917 38.625C42.7917 37.7222 43.0868 36.9757 43.6771 36.3854C44.2674 35.7951 45.0139 35.5 45.9167 35.5C46.8194 35.5 47.566 35.7951 48.1562 36.3854C48.7465 36.9757 49.0417 37.7222 49.0417 38.625C49.0417 39.5278 48.7465 40.2743 48.1562 40.8646C47.566 41.4549 46.8194 41.75 45.9167 41.75ZM45.9167 66.75C40.7083 66.75 36.2812 64.9271 32.6354 61.2812C28.9896 57.6354 27.1667 53.2083 27.1667 48C27.1667 45.3958 27.6614 42.9566 28.651 40.6823C29.6406 38.408 30.9774 36.4288 32.6614 34.7448C34.3455 33.0608 36.3246 31.724 38.5989 30.7344C40.8733 29.7448 43.3125 29.25 45.9167 29.25C48.5208 29.25 50.9601 29.7448 53.2344 30.7344C55.5087 31.724 57.4878 33.0608 59.1719 34.7448C60.8559 36.4288 62.1927 38.408 63.1823 40.6823C64.1719 42.9566 64.6667 45.3958 64.6667 48V48.4167L68.4687 44.5625L71.4375 47.4792L62.5833 56.3333L53.7292 47.4792L56.6979 44.5625L60.5 48.3646V48C60.5 43.9722 59.0764 40.5347 56.2292 37.6875C53.3819 34.8403 49.9444 33.4167 45.9167 33.4167C41.8889 33.4167 38.4514 34.8403 35.6042 37.6875C32.7569 40.5347 31.3333 43.9722 31.3333 48C31.368 52.0278 32.8003 55.4653 35.6302 58.3125C38.4601 61.1597 41.8889 62.5833 45.9167 62.5833C47.8958 62.5833 49.7535 62.2101 51.4896 61.4635C53.2257 60.717 54.7535 59.7014 56.0729 58.4167L59.0417 61.3854C57.3403 63.0521 55.3698 64.3628 53.1302 65.3177C50.8906 66.2726 48.4861 66.75 45.9167 66.75Z" fill="white"/>
</g>
</svg>
