<svg width="96" height="96" viewBox="0 0 96 96" fill="none" xmlns="http://www.w3.org/2000/svg">
<path d="M0 48C0 21.4903 21.4903 0 48 0V0C74.5097 0 96 21.4903 96 48V48C96 74.5097 74.5097 96 48 96V96C21.4903 96 0 74.5097 0 48V48Z" fill="#0274DD"/>
<mask id="mask0_149_979" style="mask-type:alpha" maskUnits="userSpaceOnUse" x="23" y="23" width="50" height="50">
<rect x="23" y="23" width="50" height="50" fill="#D9D9D9"/>
</mask>
<g mask="url(#mask0_149_979)">
<path d="M44.875 55.2918H51.125V50.0834H56.3333V43.8334H51.125V38.6251H44.875V43.8334H39.6667V50.0834H44.875V55.2918ZM48 68.8334C43.1736 67.6181 39.1892 64.849 36.0469 60.5261C32.9045 56.2032 31.3333 51.4029 31.3333 46.1251V33.4167L48 27.1667L64.6667 33.4167V46.1251C64.6667 51.4029 63.0955 56.2032 59.9531 60.5261C56.8108 64.849 52.8264 67.6181 48 68.8334ZM48 64.4584C51.6111 63.3126 54.5972 61.0209 56.9583 57.5834C59.3195 54.1459 60.5 50.3265 60.5 46.1251V36.2813L48 31.5938L35.5 36.2813V46.1251C35.5 50.3265 36.6806 54.1459 39.0417 57.5834C41.4028 61.0209 44.3889 63.3126 48 64.4584Z" fill="white"/>
</g>
</svg>
